####
#
# OBJ File Generated by Meshlab
#
####
# Object trunicos40mm.obj
#
# Vertices: 110
# Faces: 116
#
####
vn 0.000000 0.201363 -0.527176
v 3.741182 0.000000 -19.998800
vn 0.000000 0.747326 -1.956526
v -3.741183 0.000000 -19.998800
vn -0.000000 0.373663 -0.978263
v 8.050560 6.972720 -17.335459
vn -0.000000 0.575027 -1.505439
v 4.309377 13.026081 -15.023280
vn 0.000000 0.747327 -1.956526
v -4.309377 13.026081 -15.023280
vn 0.451087 -0.000000 -0.172300
v 15.023280 4.309377 -13.026082
vn 1.505439 0.000000 -0.575027
v 19.998800 3.741184 0.000000
vn 0.325813 -0.325813 -0.325813
v 15.023280 -4.309377 -13.026081
vn 1.209199 -1.209200 -1.209200
v 17.335459 -8.050561 -6.972719
vn 0.278787 -0.278787 -0.278787
v 4.309377 -13.026082 -15.023280
vn -0.000000 -0.747326 -1.956526
v 8.050560 -6.972720 -17.335459
vn -1.209200 -1.209200 -1.209200
v -17.335459 -8.050561 -6.972718
vn -0.325813 -0.325813 -0.325813
v -15.023280 -4.309377 -13.026081
vn -0.604600 -0.604600 -0.604600
v -6.972720 -17.335459 -8.050560
vn -0.883387 -0.883386 -0.883386
v -4.309377 -13.026081 -15.023281
vn -1.209200 -1.209200 -1.209199
v -8.050559 -6.972721 -17.335459
vn -0.978263 0.000000 -0.373663
v -15.023280 4.309377 -13.026081
vn -1.209199 1.209199 -1.209200
v -13.026083 15.023278 -4.309376
vn -0.883387 0.883387 -0.883386
v -8.050561 6.972719 -17.335459
vn -0.201363 0.527176 0.000000
v 0.000000 19.998800 3.741182
vn -0.373663 0.978263 -0.000000
v -6.972720 17.335459 8.050560
vn -0.201364 0.527176 -0.000000
v -6.972717 17.335459 -8.050561
vn -0.172300 0.451087 -0.000000
v -13.026081 15.023280 4.309377
vn 0.201363 0.527176 0.000000
v 0.000000 19.998800 -3.741183
vn 0.373663 0.978263 0.000000
v 6.972719 17.335459 -8.050561
vn 0.747326 1.956526 -0.000000
v 13.026082 15.023280 4.309377
vn -0.373663 -0.978263 0.000000
v -13.026081 -15.023280 -4.309377
vn 0.747327 -1.956526 -0.000000
v 6.972717 -17.335459 -8.050561
vn 0.201363 -0.527176 -0.000000
v 13.026083 -15.023278 -4.309375
vn 0.575027 -1.505439 0.000000
v 0.000000 -19.998800 -3.741185
vn 0.373663 -0.978263 -0.000000
v 0.000000 -19.998800 3.741184
vn 0.747326 -1.956526 -0.000000
v 13.026082 -15.023280 4.309377
vn 0.000000 0.201363 0.527176
v 3.741183 0.000000 19.998800
vn 0.000000 0.575027 1.505440
v -8.050560 6.972720 17.335459
vn -0.000000 0.201363 0.527176
v 4.309377 13.026081 15.023281
vn 1.209200 1.209199 1.209200
v 8.050559 6.972721 17.335459
vn 0.604600 0.604600 0.604600
v 6.972719 17.335459 8.050561
vn 0.325813 0.325813 0.325813
v 15.023280 4.309377 13.026081
vn 1.209200 1.209199 1.209199
v 17.335459 8.050561 6.972718
vn 0.527176 0.000000 0.201363
v 15.023280 -4.309377 13.026081
vn 1.505439 0.000000 0.575027
v 19.998800 -3.741184 0.000000
vn 1.956526 -0.000000 0.747326
v 17.335459 -8.050561 6.972717
vn 0.278787 -0.278787 0.278787
v 8.050561 -6.972718 17.335459
vn 0.278787 -0.278787 0.278787
v 6.972719 -17.335459 8.050561
vn -0.000000 -0.747327 1.956526
v -4.309377 -13.026081 15.023280
vn 0.000000 -0.545963 1.429350
v -8.050560 -6.972720 17.335459
vn 0.000000 -0.201364 0.527177
v 4.309376 -13.026082 15.023280
vn 0.000000 -0.373663 0.978263
v -3.741183 0.000000 19.998800
vn -0.325813 -0.325813 0.325813
v -15.023280 -4.309377 13.026082
vn -0.604600 -0.604600 0.604600
v -6.972720 -17.335459 8.050561
vn -0.278787 -0.278787 0.278787
v -13.026081 -15.023280 4.309377
vn -0.527176 -0.000000 0.201363
v -15.023280 4.309377 13.026081
vn -0.527176 0.000000 0.201363
v -19.998800 3.741186 0.000000
vn -1.505439 -0.000000 0.575027
v -17.335459 -8.050561 6.972718
vn -1.956526 0.000000 0.747327
v -19.998800 -3.741185 0.000000
vn -1.209199 1.209200 1.209200
v -17.335459 8.050561 6.972719
vn -0.883386 0.883386 0.883386
v -4.309377 13.026081 15.023280
vn 1.209200 1.209200 -1.209199
v 17.335459 8.050561 -6.972718
vn 0.930413 0.930413 -0.930413
v 13.026081 15.023280 -4.309377
vn 0.990980 0.000000 -1.603439
v 15.023281 4.309379 -13.026081
vn 0.660653 -0.000000 -1.068959
v 8.050560 6.972720 -17.335461
vn 0.330326 -0.000000 -0.534479
v 15.023281 -4.309379 -13.026081
vn 0.990979 -0.000000 -1.603439
v 8.050559 -6.972721 -17.335459
vn 0.000000 0.534480 -0.330327
v -4.309377 13.026082 -15.023280
vn 0.000000 1.603439 -0.990980
v -6.972721 17.335461 -8.050559
vn 0.000000 0.534480 -0.330326
v 0.000000 19.998802 -3.741179
vn 0.000000 1.068959 -0.660653
v 4.309377 13.026082 -15.023280
vn 0.000000 1.603439 -0.990979
v 6.972721 17.335459 -8.050559
vn -0.330327 -0.000000 -0.534480
v -8.050560 -6.972720 -17.335457
vn -0.990979 -0.000000 -1.603439
v -15.023280 -4.309378 -13.026081
vn -0.330326 -0.000000 -0.534480
v -15.023280 4.309378 -13.026082
vn 0.000000 -0.534480 -0.330327
v -6.972719 -17.335457 -8.050561
vn 0.000000 -1.603439 -0.990980
v -4.309377 -13.026081 -15.023280
vn 0.000000 -0.534480 -0.330326
v 4.309377 -13.026081 -15.023280
vn -0.000001 -1.603439 -0.990980
v 6.972719 -17.335461 -8.050561
vn -0.000000 -0.534480 -0.330327
v 0.000000 -19.998800 -3.741183
vn 0.330326 0.000000 0.534480
v 15.023280 -4.309378 13.026082
vn 0.990979 0.000000 1.603439
v 15.023280 4.309378 13.026081
vn 0.330327 0.000000 0.534480
v 8.050560 6.972720 17.335457
vn 0.330327 0.000000 0.534480
v 8.050561 -6.972719 17.335459
vn -0.000000 -0.534480 0.330326
v -4.309377 -13.026082 15.023280
vn -0.000000 -1.603439 0.990979
v -6.972721 -17.335459 8.050559
vn -0.000000 -0.534480 0.330326
v 0.000000 -19.998802 3.741179
vn -0.000000 -1.603439 0.990980
v 6.972721 -17.335461 8.050559
vn -0.000000 -0.534480 0.330327
v 4.309377 -13.026082 15.023280
vn -0.990979 0.000000 1.603439
v -8.050559 6.972721 17.335459
vn -0.330326 0.000000 0.534480
v -15.023281 4.309379 13.026081
vn -0.660653 0.000000 1.068960
v -3.741182 0.000000 19.998800
vn -0.990980 0.000000 1.603439
v -15.023281 -4.309379 13.026081
vn -0.330327 0.000000 0.534480
v -8.050560 -6.972720 17.335461
vn 0.000001 1.603439 0.990980
v 6.972719 17.335457 8.050561
vn 0.000000 1.068959 0.660653
v 4.309377 13.026081 15.023280
vn 0.000000 0.534480 0.330327
v 0.000000 19.998800 3.741183
vn 0.000001 1.603439 0.990980
v -6.972719 17.335461 8.050561
vn 1.603439 -0.990980 -0.000000
v 17.335461 -8.050560 6.972720
vn 0.534480 -0.330326 -0.000000
v 13.026082 -15.023281 4.309379
vn 1.603439 -0.990980 0.000000
v 13.026082 -15.023281 -4.309379
vn 0.534480 -0.330327 0.000000
v 17.335461 -8.050561 -6.972719
vn 1.603439 0.990980 0.000000
v 13.026081 15.023281 -4.309379
vn 0.534480 0.330327 0.000000
v 13.026081 15.023281 4.309379
vn 1.068959 0.660653 0.000000
v 17.335461 8.050561 -6.972719
vn 1.603439 0.990980 0.000000
v 17.335459 8.050560 6.972720
vn -0.534480 0.330327 0.000000
v -13.026083 15.023278 4.309375
vn -0.534480 0.330327 0.000000
v -17.335459 8.050561 -6.972717
vn -1.068959 0.660653 -0.000000
v -17.335459 8.050562 6.972716
vn -1.603439 0.990979 -0.000000
v -19.998798 3.741185 0.000000
vn -0.534479 -0.330326 -0.000000
v -17.335459 -8.050562 6.972717
vn -1.603439 -0.990979 -0.000000
v -19.998798 -3.741185 0.000000
vn -1.068959 -0.660653 -0.000000
v -13.026082 -15.023278 4.309376
vn -1.603439 -0.990980 0.000000
v -13.026081 -15.023280 -4.309376
# 110 vertices, 0 vertices normals

f 1//1 2//2 19//19
f 1//1 19//19 3//3
f 3//3 19//19 4//4
f 19//19 5//5 4//4
f 9//9 8//8 6//6
f 9//9 6//6 41//41
f 41//41 6//6 7//7
f 6//6 58//58 7//7
f 8//8 9//9 29//29
f 8//8 29//29 11//11
f 11//11 29//29 10//10
f 29//29 28//28 10//10
f 1//1 11//11 10//10
f 1//1 10//10 2//2
f 2//2 10//10 16//16
f 10//10 15//15 16//16
f 27//27 12//12 13//13
f 27//27 13//13 14//14
f 14//14 13//13 15//15
f 13//13 16//16 15//15
f 13//13 12//12 55//55
f 13//13 55//55 17//17
f 17//17 55//55 104//104
f 55//55 53//53 104//104
f 104//104 18//18 22//22
f 104//104 22//22 17//17
f 17//17 22//22 19//19
f 22//22 5//5 19//19
f 20//20 24//24 22//22
f 20//20 22//22 21//21
f 21//21 22//22 23//23
f 22//22 18//18 23//23
f 24//24 20//20 37//37
f 24//24 37//37 25//25
f 25//25 37//37 59//59
f 37//37 26//26 59//59
f 14//14 30//30 31//31
f 14//14 31//31 27//27
f 27//27 31//31 51//51
f 31//31 50//50 51//51
f 30//30 28//28 29//29
f 30//30 29//29 31//31
f 31//31 29//29 44//44
f 29//29 32//32 44//44
f 34//34 48//48 33//33
f 34//34 33//33 57//57
f 57//57 33//33 35//35
f 33//33 36//36 35//35
f 35//35 36//36 38//38
f 35//35 38//38 37//37
f 37//37 38//38 26//26
f 38//38 39//39 26//26
f 39//39 38//38 40//40
f 39//39 40//40 7//7
f 7//7 40//40 41//41
f 40//40 42//42 41//41
f 42//42 40//40 43//43
f 42//42 43//43 32//32
f 32//32 43//43 44//44
f 43//43 47//47 44//44
f 46//46 45//45 47//47
f 46//46 47//47 48//48
f 48//48 47//47 33//33
f 47//47 43//43 33//33
f 45//45 46//46 49//49
f 45//45 49//49 50//50
f 50//50 49//49 51//51
f 49//49 54//54 51//51
f 52//52 56//56 53//53
f 52//52 53//53 49//49
f 49//49 53//53 54//54
f 53//53 55//55 54//54
f 23//23 56//56 52//52
f 23//23 52//52 21//21
f 21//21 52//52 57//57
f 52//52 34//34 57//57
f 59//59 58//58 6//6
f 59//59 6//6 25//25
f 25//25 6//6 4//4
f 6//6 3//3 4//4
f 61//61 60//60 62//62
f 61//61 62//62 1//1
f 62//62 63//63 1//1
f 64//64 65//65 66//66
f 64//64 66//66 67//67
f 66//66 68//68 67//67
f 19//19 2//2 69//69
f 19//19 69//69 71//71
f 69//69 70//70 71//71
f 72//72 73//73 74//74
f 72//72 74//74 76//76
f 74//74 75//75 76//76
f 77//77 78//78 79//79
f 77//77 79//79 80//80
f 79//79 33//33 80//80
f 81//81 82//82 83//83
f 81//81 83//83 85//85
f 83//83 84//84 85//85
f 88//88 86//86 87//87
f 88//88 87//87 90//90
f 87//87 89//89 90//90
f 92//92 91//91 93//93
f 92//92 93//93 57//57
f 93//93 94//94 57//57
f 41//41 95//95 96//96
f 41//41 96//96 98//98
f 96//96 97//97 98//98
f 101//101 99//99 100//100
f 101//101 100//100 7//7
f 100//100 102//102 7//7
f 103//103 18//18 104//104
f 103//103 104//104 105//105
f 104//104 106//106 105//105
f 107//107 108//108 12//12
f 107//107 12//12 109//109
f 12//12 110//110 109//109
# 116 faces, 0 coords texture

# End of File