ply
format ascii 1.0
comment VCGLIB generated
element vertex 502
property float x
property float y
property float z
element face 1000
property list uchar int vertex_indices
end_header
-12.925 -2.00716 68.9052 
22.214 -13.1426 49.1928 
0.579655 18.3716 11.2961 
-36.5293 -17.1885 24.4666 
15.4928 6.70129 46.8724 
35.2905 -18.6084 12.8976 
35.46 -3.75554 19.794 
2.62832 -25.3246 35.9103 
14.0741 17.4638 24.6501 
-28.6734 31.8481 79.3407 
-13.0851 -23.9228 35.1306 
30.2811 -14.6662 40.1928 
-0.4709 6.95499 69.4784 
33.7214 -14.8142 17.8238 
20.6738 -5.61327 0.0222345 
20.3384 -27.6951 15.4948 
9.81984 -31.0253 11.8843 
-1.09649 -28.5798 14.1881 
12.3764 4.58398 1.74142 
7.56075 -11.3362 1.19249 
27.4961 -18.1414 6.37468 
-33.3933 3.87359 62.8054 
-21.1856 -20.2245 43.3059 
20.328 -26.2871 36.2464 
-10.2813 16.0604 0.0464169 
-7.84671 -24.7334 35.8076 
-9.41813 12.8821 27.253 
12.7424 16.1846 13.1394 
7.36832 18.649 14.795 
-23.7238 0.547283 60.4972 
12.9271 11.1816 35.4222 
-23.7396 -5.78437 66.3603 
12.726 -26.0538 3.88845 
-35.1799 -9.70383 19.2901 
-22.7644 -25.1649 24.0089 
-40.7675 -23.2086 52.6066 
-20.0591 -14.9386 6.62604 
24.0473 -0.528885 0.130927 
-23.8389 -24.1221 5.78085 
31.2567 -17.8474 12.7037 
42.7678 -9.10637 18.8855 
-6.37968 -20.8218 11.2333 
-8.14732 14.6502 19.6132 
-38.6362 -19.4859 61.7649 
-5.79315 -11.1059 48.9401 
-21.2245 10.9065 24.1801 
-6.52394 -3.59722 1.11183 
-28.1878 3.79807 57.4147 
-31.0772 -9.6101 66.7144 
12.5432 -21.3865 0.0785388 
-39.9272 -4.29583 28.4821 
30.3384 8.15499 26.9461 
28.5172 -22.5146 20.176 
-22.727 -11.6631 2.53194 
-11.12 -23.8855 15.3578 
37.6405 2.0152 12.4203 
-21.1039 -7.40452 65.9602 
-26.9187 9.80188 27.4695 
27.2786 -14.1829 44.8073 
11.1804 -32.0732 23.4573 
-26.879 1.08106 14.8365 
-21.2469 -17.0536 61.2752 
22.4965 8.87475 5.23586 
-14.2821 -23.7392 16.7057 
19.2495 -25.3069 3.77842 
-41.1276 -9.79423 55.2389 
15.538 -27.3674 36.3989 
-34.0564 -28.5088 56.7797 
-11.347 -7.55764 0.012845 
-38.7411 -27.5524 44.7431 
7.64559 -33.8212 20.8413 
3.87655 16.6054 81.5364 
-19.4555 -7.69603 64.381 
-7.60085 -30.8 0.0470463 
24.3998 -22.6094 38.2483 
8.67659 -6.38343 0.0223419 
17.7229 -15.8103 0.0193415 
-21.0304 4.14633 15.8541 
15.9382 -15.7913 51.2071 
-30.0618 28.6068 80.6026 
17.3448 -22.8085 41.1193 
1.17302 -22.6152 1.73105 
-41.9353 -9.56864 43.09 
4.43717 -15.527 51.3121 
-40.4113 -11.8417 30.1167 
29.5096 -21.6383 14.3479 
-34.0275 -14.5295 66.0225 
-39.0372 -27.7016 50.144 
-30.6452 3.55806 43.3527 
20.5743 -19.3262 46.6977 
-35.7579 -0.488252 41.5352 
-9.47911 15.9564 2.95896 
1.3853 -30.8663 14.7089 
-14.7644 1.96458 75.3497 
-31.3486 -5.01826 0.0530523 
-39.0253 -23.5004 58.0023 
-11.6109 6.53314 69.2656 
14.1793 16.7525 16.5471 
15.1018 -31.1682 16.704 
-4.30788 -31.4856 25.5481 
-28.9624 15.1094 61.5678 
-25.258 -21.9676 59.4846 
-37.1894 -3.18711 60.2797 
-3.0057 20.8241 22.048 
37.8615 -0.843719 17.2111 
33.0361 -19.0675 6.81114 
-17.6849 -26.1188 27.924 
-41.3786 -5.01049 44.289 
-26.9212 -23.498 0.0579515 
-9.82442 -0.947715 75.7643 
-27.6614 25.9692 64.7924 
-22.1327 -23.341 48.7822 
31.5034 -12.9746 2.03757 
-24.5091 -24.7227 48.6554 
-18.7522 -21.1549 7.62973 
1.25225 -32.1089 30.8321 
-2.58984 -30.3071 5.53932 
-31.0455 17.1844 66.3042 
34.2662 -1.31987 30.6038 
6.46237 11.1643 41.4163 
-5.86935 -22.7373 17.6779 
-17.7625 -2.7311 59.5972 
-33.9758 10.5567 67.6149 
7.57811 -26.9019 4.53716 
9.44929 12.9291 3.77721 
7.81188 -32.2829 15.4817 
-32.0772 7.57284 26.7902 
-38.2935 -4.08372 25.8408 
-20.6539 -15.3999 63.8844 
2.65302 7.28716 45.6581 
-35.7245 -19.3835 33.0503 
-2.48756 -25.9308 8.26457 
0.562035 -29.532 0.0188861 
20.8542 -27.612 11.021 
12.341 -8.68794 53.1986 
28.6858 -20.7302 34.7054 
-41.4845 -18.8391 51.3198 
9.62044 16.9089 33.0307 
-25.9986 7.31047 60.4848 
-14.4526 10.5385 25.5436 
-22.3377 -0.650201 66.3892 
16.9648 -28.8564 13.1155 
-12.4771 7.65304 43.9872 
-10.4161 -25.5092 31.4952 
-30.692 -28.4967 55.2937 
-31.372 -0.570374 17.5034 
-36.9698 1.20817 36.1727 
-12.0696 2.91527 0.937045 
11.3038 10.3101 43.3649 
-37.4549 -8.56177 65.3413 
22.0074 7.78264 39.5267 
-27.467 -25.0454 25.5839 
4.59743 -20.9886 47.4247 
-29.7964 7.78383 33.8848 
-34.1431 -21.4887 28.194 
-1.78903 -29.6343 32.3968 
-2.86067 -29.6921 20.3333 
6.03433 -29.3073 34.9961 
35.2769 -9.61319 3.18348 
-2.12862 7.46482 80.1453 
-1.00407 -20.0266 46.2061 
-19.3767 -20.6285 16.3144 
-27.0065 -29.8511 46.3246 
-29.7627 0.126737 0.0105283 
-12.3468 -24.6889 0.00246915 
-0.315146 4.28837 68.2689 
14.4596 3.78012 0.0144397 
-18.4804 1.23423 51.2293 
-38.7291 -9.19044 40.282 
-30.4301 14.6134 74.4402 
-25.3061 32.6153 79.4973 
15.8878 16.8247 19.938 
-24.3453 9.55909 33.8977 
10.1434 -25.1526 36.6166 
-30.4333 9.89752 60.5817 
-42.4682 -24.3305 47.0093 
-30.5486 2.40108 68.4857 
27.1235 8.01511 12.0241 
-7.92347 8.92196 12.6653 
-39.3154 -3.22421 33.477 
32.2033 1.16117 34.6686 
8.64534 -31.2884 9.32811 
-29.7585 -29.4592 42.8699 
-13.2281 -22.7404 7.2826 
-4.65115 8.12908 43.2588 
-3.77791 -0.146235 68.596 
26.1514 3.1074 6.14258 
-34.2362 20.1283 74.757 
-17.1304 6.42091 47.0856 
-3.4483 4.88636 81.9888 
-7.94128 17.6172 22.64 
-32.4852 -15.8871 18.9515 
-18.1773 6.94597 18.2343 
-28.0825 8.30275 70.7833 
-3.76329 5.01823 72.6747 
-7.99838 -23.8505 25.9233 
18.637 -30.6589 23.2901 
41.1915 -2.45514 17.7714 
-14.413 -8.91965 51.3308 
2.75542 11.4137 77.1436 
7.06317 7.66595 45.0753 
10.2597 -31.0433 32.8694 
-26.337 14.3794 62.4253 
29.1038 -5.68251 0.0423473 
-39.9748 -15.2617 55.9598 
25.9571 -25.2206 22.6559 
-38.0055 -16.2875 29.4712 
39.1237 -16.2101 10.4479 
-35.4512 2.01188 23.6586 
-30.9853 23.6645 72.6541 
-36.7253 -16.9562 41.464 
-22.752 -3.83073 7.51565 
-25.0445 6.62196 18.6349 
-6.34188 -7.49007 49.5581 
-27.8903 31.215 75.3932 
7.28318 -24.6986 0.00613022 
-0.587347 9.57732 84.4446 
-20.5372 -17.2609 56.3803 
-25.7466 -19.2367 16.6673 
-2.62103 11.0605 77.0895 
-26.4983 -10.7122 0.0975879 
-38.3524 -2.3412 56.7942 
-31.7042 21.8942 77.0379 
34.4016 -13.9858 26.5086 
-5.07108 12.9256 33.0233 
28.2025 3.46671 40.398 
-34.5121 0.402744 61.9223 
-14.2115 8.90432 19.6326 
-24.2683 33.5832 73.7699 
42.0007 -12.5904 11.0692 
9.52643 -26.7688 0.0210902 
1.49153 -28.5991 8.25218 
-10.6868 -2.12681 50.7329 
40.4717 -15.6602 16.4409 
3.51469 7.92027 71.6488 
40.9464 -9.11093 7.42621 
-6.23207 12.8756 7.12021 
20.5324 1.60291 0.0756169 
-10.88 5.32805 12.4897 
12.573 -32.5706 27.7083 
-3.94662 4.35456 47.116 
-17.7079 4.61928 5.15977 
9.85273 3.65393 49.3222 
-40.4449 -18.1067 57.9924 
-20.7931 -0.34963 60.035 
-7.15198 8.24259 77.5064 
-31.3896 3.31124 59.0953 
-27.9706 -18.4146 0.0113515 
-9.98112 -2.94781 67.8758 
14.4337 -18.6793 1.82062 
0.974593 1.19407 49.5848 
16.5478 11.1723 0.0680518 
-19.4098 -11.197 11.2633 
31.4929 -19.4853 27.0942 
19.3319 -24.6911 -0.00208489 
-32.487 13.0892 63.3837 
-40.5016 -7.10484 62.4517 
34.7963 -4.42013 29.5531 
8.018 15.9097 6.29376 
-2.92378 -25.0392 0.0693327 
-6.02786 19.1983 28.1168 
-32.1582 6.12596 35.5715 
13.8351 -31.9396 23.1404 
-7.73725 -23.2657 20.9344 
-22.4866 -18.6837 64.8386 
-34.5537 18.9412 72.2155 
-11.8641 9.94399 40.6621 
-22.8741 5.06408 0.0397565 
-30.9545 22.0316 63.3465 
-19.8006 11.361 35.2596 
5.21297 -25.0745 40.5513 
-15.5885 5.57121 11.8425 
-33.1506 -20.5283 37.3591 
16.2114 16.2351 28.9529 
-23.2078 -3.24084 12.4917 
-15.6558 -14.2892 48.4081 
23.4959 -27.6611 25.3774 
42.1003 -2.85323 13.6415 
-7.27958 -20.6392 1.32476 
-23.8446 -26.0557 31.8438 
7.13314 19.7397 27.9381 
-20.8158 2.18525 9.83579 
-8.84721 -3.57767 0.186234 
-39.0062 -11.5929 27.0851 
4.76038 -2.89301 51.9714 
-15.8551 -16.1615 0.0152086 
-17.6196 -20.5815 11.3495 
-14.0529 5.2879 6.83904 
-37.8206 0.496987 27.1297 
-6.52079 -10.0258 0.162495 
-5.31232 -28.2016 6.85769 
-5.74362 -25.6456 31.6226 
0.587677 20.3274 17.3162 
-3.08743 18.5792 15.1859 
-26.0581 24.2435 67.5039 
-20.3813 -8.47562 0.0127556 
-26.0239 -15.9921 3.35145 
15.6246 -29.8719 10.3007 
-39.7136 -22.5164 41.8278 
-24.4847 -24.3738 36.6129 
-9.24843 11.1184 37.8563 
-32.738 -21.3588 39.8263 
10.35 7.94663 0.0160416 
24.9116 -15.6487 1.47542 
39.9488 -2.67304 7.77952 
11.8759 -23.5388 43.4198 
-15.7161 -2.77257 51.6599 
-8.54529 0.253323 64.8608 
28.0848 7.06341 32.8884 
22.2 13.1905 27.4053 
-25.2617 25.5212 72.3906 
-1.7107 9.87096 42.1353 
-16.936 9.90702 39.5913 
12.6847 18.2974 20.7069 
16.677 14.0934 7.4923 
-28.2775 -5.30042 4.42802 
-41.4869 -11.1035 63.7134 
24.1108 12.7026 20.2863 
-26.8015 2.82489 66.122 
27.8098 -24.2536 29.2636 
-28.7584 7.76348 21.7011 
-14.4098 1.76316 0.0925895 
-5.20695 14.7507 10.9375 
-16.6455 -2.41114 72.5457 
-21.7599 11.415 31.8566 
-8.9753 4.68106 46.6304 
33.2832 2.42096 28.2598 
-26.0842 -20.5062 5.21708 
14.5854 -0.165843 51.765 
23.0844 -14.2596 0.0134116 
-41.3563 -16.2286 44.7129 
-0.433039 -32.546 24.6888 
-5.97595 10.0794 0.0923708 
-32.1096 -1.6504 65.8977 
-32.7454 3.25671 46.1934 
5.56245 3.80408 49.7944 
-2.34544 -25.9347 33.7811 
43.2947 -8.09341 13.4834 
-8.86403 7.79055 1.31153 
29.8092 -0.232338 1.87281 
3.02632 -31.2461 17.7399 
-34.5451 26.9314 78.0346 
25.4276 10.3013 14.0637 
-35.2675 -4.17003 19.8417 
-28.7359 29.0488 66.8595 
-33.1381 2.80011 66.0218 
-7.43108 3.18551 65.7739 
-1.05466 19.4434 30.9075 
-27.2154 -21.5256 41.1497 
1.83633 -14.1799 1.2763 
-39.2203 -14.5058 35.2716 
35.2474 -9.76832 20.5525 
-9.61441 -19.9748 0.0611027 
-24.3236 3.27138 53.0055 
-27.251 24.1668 75.453 
-23.5037 -26.5265 0.0811869 
-28.5283 -8.14932 13.4254 
33.416 -14.2452 32.6894 
-41.3293 -5.3167 53.3539 
21.1702 13.9222 13.9287 
-25.354 9.13585 37.1907 
20.1246 11.321 4.03508 
-4.25147 8.69068 1.37829 
-42.5127 -12.7211 52.1419 
1.75375 -2.81526 1.27079 
-21.4635 2.38768 5.62718 
-10.0159 13.4863 0.0105515 
39.8915 -6.30063 20.6023 
-2.45861 11.127 80.8749 
-18.4563 -6.75548 60.1859 
-9.80762 -27.5068 3.63423 
30.3417 5.57727 22.2876 
-28.276 -25.685 57.9516 
23.4492 2.79263 3.81966 
-11.5675 -16.6672 47.4507 
-23.4589 8.04854 42.1127 
-25.4545 -21.0554 56.0298 
-13.7783 2.51868 63.645 
-35.8238 -12.6554 21.6956 
1.88323 20.7625 26.4377 
-23.7163 4.25126 46.9867 
-35.3691 -27.9395 44.7432 
-8.73617 -21.8543 8.35756 
-38.6506 -5.787 39.9792 
-12.3787 -24.9109 24.263 
31.351 5.14884 17.5502 
33.7112 2.22251 6.71041 
-27.4256 -14.1255 66.6661 
36.3634 -2.89407 4.44336 
10.9392 -13.1312 0.0157194 
8.44863 12.0837 35.518 
-6.4185 -2.48031 49.1158 
-17.7592 -18.3185 50.4529 
-21.4042 -5.60534 10.5986 
25.1808 -23.4387 11.1222 
-12.9307 11.4018 5.22819 
10.5693 -18.8359 49.6212 
-8.38531 2.55092 73.2557 
-11.0216 -21.2758 40.8256 
0.221218 14.6179 4.28802 
24.668 -21.3557 5.93109 
-24.8095 16.2375 66.5317 
-34.8449 -20.6168 63.7626 
5.04833 -32.2963 30.8626 
-15.1691 -23.351 39.2249 
-16.8672 -19.0521 44.1288 
-42.6156 -7.02683 47.1793 
-33.5475 6.066 32.1395 
-13.7818 -24.3513 27.3172 
-30.4102 -20.4252 20.3464 
-27.3085 1.99427 3.00368 
-42.1605 -17.0337 46.7309 
23.5069 10.0224 34.9466 
-20.5651 -0.334392 0.00994641 
-31.2279 4.15563 51.1467 
-0.977553 10.0274 72.9966 
24.5254 1.09647 45.758 
-11.8344 -23.695 4.24611 
23.7763 -25.109 18.7902 
-41.6027 -10.6374 58.3576 
-34.8758 -30.3512 50.6412 
-15.6653 12.7513 0.0763107 
-8.66434 5.15945 8.3323 
23.3349 -26.4231 32.0888 
-18.7387 -25.3252 33.0598 
-28.9883 -24.8017 29.0672 
-38.7575 -9.14938 24.415 
-6.93679 6.21214 79.8567 
-33.0727 9.62302 70.9542 
19.5226 -2.76996 50.7969 
3.43594 13.4084 0.0951126 
25.5056 -18.9826 42.8345 
17.9659 -29.2773 31.2248 
-37.4318 1.92033 30.652 
31.6801 -3.81675 39.2129 
20.8651 14.247 9.99827 
31.2058 1.97327 12.1878 
-5.935 -23.3793 39.1232 
-4.27173 15.1701 0.0104058 
-28.7605 -3.44225 4.75863 
36.7654 -14.718 5.83808 
-15.9542 11.3765 32.7345 
9.43219 -32.0711 18.0319 
23.7381 4.40836 43.9138 
-21.1469 -26.8692 3.22958 
-29.9199 -11.5389 14.8243 
-12.1149 -3.04427 65.0382 
-26.6889 -1.64324 65.376 
7.59422 -3.92513 1.34097 
-17.8723 6.16302 0.120517 
33.6125 -7.30969 34.891 
4.21597 15.9877 77.0408 
-17.3338 -10.0133 55.5126 
20.3879 11.258 36.0963 
2.71771 12.7466 35.1581 
20.2123 -28.0656 28.8577 
-8.08598 -17.8924 45.61 
17.4638 3.33209 48.5985 
12.3676 -29.6213 7.12561 
-38.6728 0.766265 48.4959 
-25.3219 3.11654 62.7385 
-18.5277 -0.643295 72.0225 
-15.5366 4.0748 71.4288 
10.1995 -1.34852 52.2294 
16.1562 -9.76647 52.4234 
-31.5865 13.7894 66.9443 
-18.2541 -10.0012 6.37549 
-35.57 1.24635 54.6212 
-30.5212 -23.9981 32.6281 
-25.7524 13.6229 70.8096 
38.6873 -11.0735 20.7084 
-11.7561 2.75187 49.4973 
-18.5109 -1.31871 55.663 
3.35614 -10.0139 52.0867 
17.8733 12.3445 33.1741 
-19.3933 -18.3699 14.5073 
-4.88728 12.1336 37.5996 
13.2237 16.0821 9.90171 
-24.1392 -23.7868 21.0443 
-9.9214 8.79235 19.2352 
-4.76712 -11.2187 0.927048 
-33.7037 1.95695 20.411 
-40.3685 -10.3695 35.299 
34.3787 -1.01619 23.1204 
4.93669 -33.1623 22.5675 
6.76731 18.702 17.8669 
27.2491 -3.298 45.294 
-18.701 -22.618 39.7462 
19.2441 7.94946 0.112735 
7.02559 19.7068 22.9326 
18.543 -24.9812 6.46559 
-34.2971 -25.6028 41.1586 
27.9789 8.73206 17.4083 
26.9472 9.98124 23.3751 
24.0529 -25.3327 14.2394 
4.04825 12.2177 72.9198 
-0.391106 4.25399 70.5567 
14.6424 10.5533 37.7623 
-16.6747 -24.3024 20.842 
-27.4114 -20.7914 64.5511 
-29.1301 27.3225 69.1981 
-5.12249 -16.969 46.7442 
3 200 335 242 
3 491 381 69 
3 315 211 439 
3 238 287 271 
3 146 433 179 
3 376 101 372 
3 126 153 57 
3 472 353 244 
3 172 57 153 
3 211 365 410 
3 80 89 305 
3 120 263 41 
3 52 253 205 
3 274 393 356 
3 214 209 9 
3 105 112 440 
3 5 233 13 
3 228 344 214 
3 72 369 446 
3 311 300 184 
3 262 59 442 
3 171 309 317 
3 97 171 359 
3 329 76 14 
3 203 388 158 
3 352 164 285 
3 295 247 220 
3 353 47 29 
3 226 102 256 
3 208 126 320 
3 39 13 85 
3 439 94 315 
3 282 46 289 
3 286 114 183 
3 476 300 311 
3 370 73 290 
3 39 5 13 
3 312 360 375 
3 296 53 247 
3 343 145 356 
3 58 434 486 
3 11 434 58 
3 414 47 353 
3 146 88 261 
3 15 205 276 
3 488 251 361 
3 246 47 467 
3 68 321 282 
3 14 389 75 
3 421 91 24 
3 289 480 352 
3 199 71 216 
3 175 136 411 
3 291 25 143 
3 430 438 399 
3 225 180 308 
3 412 453 150 
3 57 324 45 
3 327 247 108 
3 73 132 116 
3 233 470 13 
3 140 96 244 
3 498 34 161 
3 449 413 163 
3 113 111 376 
3 404 405 487 
3 471 325 188 
3 230 32 123 
3 458 297 16 
3 235 337 229 
3 173 66 80 
3 420 182 162 
3 334 90 459 
3 17 156 120 
3 155 157 7 
3 377 346 121 
3 371 492 493 
3 467 47 414 
3 220 315 94 
3 431 74 135 
3 28 292 485 
3 78 396 89 
3 327 36 296 
3 185 165 496 
3 432 262 455 
3 191 218 409 
3 301 272 348 
3 152 305 396 
3 57 45 320 
3 335 250 284 
3 479 227 139 
3 328 457 242 
3 176 169 428 
3 323 31 56 
3 345 333 176 
3 450 434 11 
3 60 212 77 
3 218 252 475 
3 0 496 194 
3 224 347 260 
3 98 16 141 
3 169 193 469 
3 236 322 2 
3 393 211 466 
3 454 390 137 
3 421 24 366 
3 106 424 279 
3 399 91 236 
3 206 3 154 
3 227 271 192 
3 186 436 386 
3 218 478 409 
3 448 166 75 
3 471 306 232 
3 239 484 59 
3 488 361 62 
3 48 31 447 
3 82 107 168 
3 400 394 490 
3 339 203 37 
3 492 317 493 
3 206 130 350 
3 362 338 332 
3 156 92 331 
3 197 367 40 
3 115 155 99 
3 256 102 65 
3 231 181 16 
3 418 494 52 
3 23 432 455 
3 443 412 150 
3 422 178 236 
3 434 118 180 
3 215 254 230 
3 253 319 205 
3 485 292 489 
3 93 109 189 
3 241 287 449 
3 5 105 207 
3 333 21 226 
3 425 299 468 
3 95 43 243 
3 412 308 51 
3 199 397 194 
3 345 21 333 
3 360 312 269 
3 483 6 436 
3 149 256 316 
3 149 316 86 
3 164 417 444 
3 461 323 93 
3 238 178 422 
3 245 93 427 
3 462 140 461 
3 104 436 6 
3 293 292 2 
3 275 392 405 
3 484 403 115 
3 86 402 499 
3 89 431 58 
3 28 485 97 
3 155 336 291 
3 429 486 416 
3 170 79 354 
3 460 447 29 
3 349 448 19 
3 329 203 112 
3 409 154 3 
3 398 10 25 
3 393 274 211 
3 312 188 142 
3 338 321 332 
3 224 26 300 
3 305 270 173 
3 343 33 378 
3 357 11 135 
3 121 446 369 
3 448 349 364 
3 361 314 62 
3 445 356 252 
3 88 380 375 
3 475 63 161 
3 321 438 332 
3 461 140 31 
3 65 419 256 
3 205 15 418 
3 498 161 63 
3 201 239 432 
3 400 20 85 
3 145 208 481 
3 455 423 23 
3 280 8 489 
3 271 227 238 
3 411 406 82 
3 217 392 198 
3 198 306 452 
3 378 283 426 
3 166 18 302 
3 327 38 114 
3 476 311 454 
3 235 440 158 
3 314 361 251 
3 301 491 298 
3 250 129 184 
3 171 317 359 
3 161 34 478 
3 481 208 320 
3 395 91 421 
3 343 378 426 
3 45 441 139 
3 419 316 256 
3 35 243 204 
3 335 200 129 
3 16 125 231 
3 143 408 384 
3 42 293 322 
3 319 135 74 
3 352 285 289 
3 482 350 168 
3 215 132 259 
3 24 91 438 
3 38 108 444 
3 175 298 69 
3 398 374 404 
3 462 93 245 
3 250 335 129 
3 197 40 277 
3 248 185 0 
3 192 77 45 
3 385 436 177 
3 190 26 260 
3 164 370 417 
3 348 182 301 
3 252 466 36 
3 79 9 341 
3 169 222 187 
3 28 477 258 
3 255 268 100 
3 2 28 258 
3 166 448 18 
3 28 27 477 
3 40 337 277 
3 235 304 337 
3 382 131 41 
3 72 264 128 
3 53 296 36 
3 316 419 243 
3 145 212 60 
3 300 441 266 
3 309 8 273 
3 328 464 429 
3 443 416 225 
3 64 32 254 
3 249 49 81 
3 473 134 284 
3 195 263 156 
3 390 30 137 
3 245 219 96 
3 378 3 283 
3 227 479 238 
3 302 18 362 
3 254 303 400 
3 462 96 140 
3 21 255 174 
3 163 94 439 
3 145 60 356 
3 421 366 449 
3 188 325 142 
3 339 388 203 
3 255 100 174 
3 377 96 12 
3 261 433 146 
3 330 175 411 
3 337 233 229 
3 440 235 229 
3 29 244 353 
3 164 73 370 
3 19 249 81 
3 395 421 287 
3 331 115 99 
3 198 275 374 
3 374 405 404 
3 384 195 143 
3 159 189 109 
3 287 422 395 
3 113 144 162 
3 479 42 322 
3 454 311 129 
3 332 302 362 
3 374 398 456 
3 265 122 187 
3 487 348 299 
3 414 353 380 
3 173 201 432 
3 338 147 321 
3 113 348 22 
3 89 80 431 
3 389 249 19 
3 446 121 307 
3 464 328 134 
3 202 110 294 
3 457 328 429 
3 201 173 157 
3 169 469 354 
3 61 217 369 
3 56 31 387 
3 179 433 288 
3 347 224 454 
3 292 379 489 
3 125 16 98 
3 459 90 107 
3 165 12 234 
3 276 196 15 
3 359 342 435 
3 199 234 71 
3 420 162 144 
3 46 282 147 
3 346 165 307 
3 333 447 176 
3 99 155 291 
3 207 229 233 
3 209 341 9 
3 2 399 236 
3 257 223 351 
3 266 184 300 
3 499 402 67 
3 298 491 69 
3 363 65 358 
3 463 242 335 
3 435 62 314 
3 299 279 424 
3 177 492 385 
3 448 364 18 
3 179 482 383 
3 366 321 295 
3 64 490 32 
3 366 413 449 
3 416 457 429 
3 451 71 495 
3 84 206 350 
3 14 237 37 
3 88 375 360 
3 127 288 208 
3 88 90 334 
3 8 313 489 
3 282 321 147 
3 186 62 177 
3 71 368 216 
3 323 56 72 
3 204 136 35 
3 417 382 183 
3 14 75 237 
3 445 218 191 
3 268 117 500 
3 155 7 336 
3 184 266 142 
3 244 377 121 
3 319 253 135 
3 330 210 298 
3 231 458 181 
3 96 219 415 
3 95 87 67 
3 374 456 44 
3 379 103 347 
3 375 188 312 
3 39 85 20 
3 483 385 326 
3 423 276 205 
3 372 67 144 
3 17 41 131 
3 444 114 38 
3 151 425 154 
3 10 398 404 
3 55 197 277 
3 264 499 101 
3 334 459 414 
3 80 66 23 
3 398 437 456 
3 351 367 6 
3 19 81 349 
3 161 218 475 
3 53 466 315 
3 225 486 434 
3 32 458 123 
3 369 452 472 
3 156 331 99 
3 267 410 365 
3 218 445 252 
3 416 443 457 
3 66 432 23 
3 83 78 134 
3 121 472 244 
3 392 275 198 
3 151 409 478 
3 383 146 179 
3 224 260 26 
3 250 184 240 
3 14 37 203 
3 395 422 236 
3 293 190 103 
3 447 31 140 
3 257 351 6 
3 34 151 478 
3 272 210 350 
3 496 0 185 
3 217 376 111 
3 303 20 400 
3 296 247 327 
3 420 144 67 
3 9 228 214 
3 368 245 427 
3 200 242 148 
3 392 217 111 
3 274 60 77 
3 182 381 491 
3 132 215 230 
3 23 74 80 
3 369 217 452 
3 272 350 130 
3 332 438 302 
3 289 285 68 
3 231 125 92 
3 135 11 431 
3 481 320 145 
3 83 152 396 
3 303 105 20 
3 301 298 210 
3 124 314 251 
3 209 500 117 
3 153 261 172 
3 497 148 150 
3 119 129 200 
3 442 340 125 
3 251 302 430 
3 44 213 198 
3 8 137 273 
3 279 34 106 
3 484 331 340 
3 92 17 231 
3 364 338 362 
3 461 93 462 
3 239 201 403 
3 159 199 216 
3 218 161 478 
3 208 145 343 
3 50 283 84 
3 401 310 469 
3 343 426 208 
3 160 437 152 
3 15 98 141 
3 264 72 56 
3 317 342 359 
3 367 197 104 
3 373 37 237 
3 376 372 144 
3 305 173 80 
3 117 268 255 
3 410 439 211 
3 74 423 319 
3 394 85 494 
3 384 54 263 
3 22 348 487 
3 401 469 460 
3 324 269 441 
3 216 189 159 
3 3 191 409 
3 326 385 371 
3 270 152 437 
3 266 269 312 
3 186 386 339 
3 180 118 326 
3 253 357 135 
3 391 250 240 
3 247 295 108 
3 480 46 364 
3 23 423 74 
3 108 38 327 
3 262 442 98 
3 196 455 262 
3 103 292 293 
3 493 309 51 
3 238 422 287 
3 88 146 90 
3 4 457 443 
3 443 225 412 
3 318 460 469 
3 167 188 380 
3 76 329 254 
3 440 229 207 
3 444 108 355 
3 465 209 117 
3 486 225 416 
3 313 8 171 
3 182 348 162 
3 459 467 414 
3 62 186 373 
3 206 84 283 
3 439 410 163 
3 435 177 62 
3 407 126 208 
3 137 474 273 
3 477 124 258 
3 286 475 36 
3 425 279 299 
3 257 118 450 
3 269 324 172 
3 194 496 199 
3 376 217 61 
3 204 419 65 
3 400 85 394 
3 379 347 280 
3 120 41 17 
3 435 314 477 
3 294 310 401 
3 281 241 365 
3 371 51 326 
3 96 415 12 
3 495 234 12 
3 385 483 436 
3 310 228 170 
3 295 321 68 
3 499 387 86 
3 490 133 141 
3 190 260 103 
3 460 318 447 
3 223 257 357 
3 349 278 480 
3 155 115 157 
3 3 378 191 
3 116 290 73 
3 433 208 288 
3 297 458 490 
3 264 56 387 
3 142 240 184 
3 471 232 325 
3 269 266 441 
3 445 33 343 
3 492 177 342 
3 254 32 230 
3 200 148 119 
3 249 389 76 
3 407 261 153 
3 423 205 319 
3 12 346 377 
3 10 487 424 
3 34 425 151 
3 211 274 281 
3 442 125 98 
3 446 0 72 
3 86 316 402 
3 234 496 165 
3 354 79 222 
3 1 58 486 
3 323 461 31 
3 170 354 310 
3 1 89 58 
3 134 78 464 
3 131 123 231 
3 468 348 272 
3 355 164 444 
3 337 304 277 
3 366 295 413 
3 186 37 373 
3 112 105 303 
3 4 148 242 
3 352 278 259 
3 453 412 474 
3 109 0 397 
3 65 363 204 
3 25 437 398 
3 380 353 167 
3 259 73 164 
3 371 385 492 
3 284 463 335 
3 185 248 446 
3 330 411 82 
3 443 150 4 
3 259 81 49 
3 197 55 104 
3 154 272 130 
3 342 177 435 
3 250 391 284 
3 119 497 390 
3 115 331 484 
3 25 336 437 
3 181 458 16 
3 152 270 305 
3 72 109 323 
3 193 176 318 
3 495 415 451 
3 344 500 214 
3 223 13 351 
3 49 76 254 
3 85 13 223 
3 107 82 406 
3 75 166 237 
3 289 46 480 
3 399 438 91 
3 17 131 231 
3 86 387 48 
3 28 97 27 
3 401 138 202 
3 368 71 219 
3 187 122 428 
3 189 427 93 
3 134 473 83 
3 312 142 266 
3 77 192 281 
3 496 234 199 
3 116 131 290 
3 52 494 85 
3 87 35 175 
3 413 295 220 
3 195 99 291 
3 490 394 133 
3 191 378 33 
3 175 35 136 
3 35 95 243 
3 336 25 291 
3 160 152 83 
3 139 227 192 
3 204 363 136 
3 225 434 180 
3 0 194 397 
3 39 20 105 
3 454 119 390 
3 272 301 210 
3 497 474 30 
3 279 425 34 
3 446 248 0 
3 110 202 100 
3 441 300 26 
3 214 500 209 
3 407 208 433 
3 322 178 479 
3 326 51 180 
3 356 393 252 
3 251 430 124 
3 205 418 52 
3 21 345 122 
3 483 257 6 
3 59 70 442 
3 190 42 26 
3 43 95 402 
3 436 104 55 
3 467 459 221 
3 10 106 408 
3 14 203 329 
3 295 285 108 
3 309 273 474 
3 281 271 241 
3 215 49 254 
3 251 488 166 
3 39 105 5 
3 482 84 350 
3 251 166 302 
3 216 427 189 
3 365 241 267 
3 453 474 497 
3 475 286 63 
3 127 50 288 
3 254 400 64 
3 449 163 267 
3 371 493 51 
3 488 62 237 
3 240 325 391 
3 406 411 363 
3 357 257 450 
3 216 368 427 
3 110 268 344 
3 68 285 295 
3 431 80 74 
3 53 36 466 
3 16 297 141 
3 465 265 341 
3 249 76 49 
3 301 182 491 
3 309 493 317 
3 246 138 47 
3 463 328 242 
3 460 138 401 
3 198 232 306 
3 487 10 404 
3 350 210 168 
3 102 221 65 
3 196 276 455 
3 447 140 244 
3 231 123 458 
3 476 454 224 
3 138 174 100 
3 392 22 405 
3 58 431 11 
3 246 174 138 
3 366 438 321 
3 345 176 428 
3 424 106 10 
3 12 415 495 
3 284 213 473 
3 8 309 171 
3 220 247 53 
3 359 477 27 
3 284 391 213 
3 305 89 396 
3 159 397 199 
3 215 259 49 
3 438 366 24 
3 258 124 399 
3 477 314 124 
3 137 280 347 
3 494 15 133 
3 434 450 118 
3 165 346 12 
3 459 406 358 
3 420 381 182 
3 390 497 30 
3 323 109 93 
3 15 141 133 
3 307 185 446 
3 195 156 99 
3 233 5 207 
3 169 187 428 
3 131 116 123 
3 187 222 341 
3 67 402 95 
3 401 202 294 
3 482 168 383 
3 376 61 101 
3 178 238 479 
3 375 380 188 
3 454 129 119 
3 286 183 63 
3 474 137 30 
3 145 320 212 
3 83 473 213 
3 488 237 166 
3 15 494 418 
3 122 265 465 
3 467 102 226 
3 499 372 101 
3 428 122 345 
3 50 179 288 
3 187 341 265 
3 253 223 357 
3 340 442 70 
3 21 174 246 
3 437 336 7 
3 219 451 415 
3 154 130 206 
3 192 45 139 
3 149 48 333 
3 379 292 103 
3 477 359 435 
3 76 389 14 
3 309 412 51 
3 110 228 294 
3 10 408 143 
3 465 117 255 
3 500 344 268 
3 212 320 45 
3 354 222 169 
3 497 150 453 
3 87 420 67 
3 192 271 281 
3 17 92 156 
3 36 475 252 
3 280 489 379 
3 324 441 45 
3 169 176 193 
3 383 168 107 
3 19 75 389 
3 293 42 190 
3 360 172 261 
3 64 400 490 
3 467 221 102 
3 362 18 364 
3 213 391 232 
3 373 237 62 
3 57 172 324 
3 82 168 210 
3 42 479 26 
3 88 414 380 
3 211 315 466 
3 203 158 112 
3 96 377 244 
3 61 369 128 
3 381 420 87 
3 225 308 412 
3 306 167 472 
3 440 207 105 
3 41 263 54 
3 156 263 120 
3 210 330 82 
3 281 365 211 
3 349 81 278 
3 472 452 306 
3 241 271 287 
3 48 387 31 
3 224 300 476 
3 83 396 78 
3 426 127 208 
3 1 78 89 
3 367 104 6 
3 403 157 115 
3 274 356 60 
3 272 154 468 
3 482 179 50 
3 354 469 310 
3 235 158 388 
3 191 33 445 
3 148 4 150 
3 455 276 423 
3 83 501 160 
3 370 382 417 
3 40 470 233 
3 219 245 368 
3 487 405 22 
3 309 474 412 
3 462 245 96 
3 19 448 75 
3 472 121 369 
3 494 133 394 
3 298 175 330 
3 470 351 13 
3 382 290 131 
3 329 112 303 
3 383 107 90 
3 206 283 3 
3 252 393 466 
3 264 101 61 
3 160 501 437 
3 262 98 196 
3 283 127 426 
3 402 316 43 
3 297 490 141 
3 454 137 347 
3 97 485 313 
3 7 173 270 
3 55 277 304 
3 26 139 441 
3 449 267 241 
3 259 278 81 
3 425 468 154 
3 53 315 220 
3 501 83 44 
3 465 255 21 
3 1 464 78 
3 328 463 134 
3 372 499 67 
3 338 46 147 
3 167 306 471 
3 374 275 405 
3 198 213 232 
3 85 253 52 
3 170 9 79 
3 44 456 501 
3 386 388 339 
3 158 440 112 
3 2 258 399 
3 47 138 460 
3 278 352 480 
3 157 173 7 
3 339 37 186 
3 8 280 137 
3 162 348 113 
3 472 167 353 
3 413 94 163 
3 470 367 351 
3 470 40 367 
3 126 407 153 
3 447 333 48 
3 128 369 72 
3 471 188 167 
3 32 490 458 
3 285 164 355 
3 72 0 109 
3 262 432 239 
3 382 370 290 
3 451 219 71 
3 125 340 92 
3 221 358 65 
3 143 195 291 
3 430 302 438 
3 143 25 10 
3 111 22 392 
3 230 123 132 
3 364 349 480 
3 352 259 164 
3 54 498 63 
3 487 299 424 
3 157 403 201 
3 310 294 228 
3 87 69 381 
3 100 202 138 
3 54 183 41 
3 132 73 259 
3 341 222 79 
3 360 269 172 
3 212 45 77 
3 484 340 70 
3 87 95 35 
3 407 433 261 
3 171 97 313 
3 498 408 106 
3 239 403 484 
3 41 183 382 
3 331 92 340 
3 83 213 44 
3 94 413 220 
3 409 151 154 
3 363 358 406 
3 384 263 195 
3 232 391 325 
3 226 246 467 
3 304 235 388 
3 283 50 127 
3 170 228 9 
3 495 71 234 
3 334 414 88 
3 327 114 36 
3 7 270 437 
3 40 233 337 
3 109 397 159 
3 452 217 198 
3 411 136 363 
3 307 165 185 
3 69 87 175 
3 256 333 226 
3 27 97 359 
3 313 485 489 
3 113 376 144 
3 244 29 447 
3 15 196 98 
3 142 325 240 
3 410 267 163 
3 132 123 116 
3 285 355 108 
3 124 430 399 
3 343 356 445 
3 111 113 22 
3 344 228 110 
3 437 501 456 
3 59 484 70 
3 122 465 21 
3 55 304 386 
3 320 126 57 
3 465 341 209 
3 90 146 383 
3 308 180 51 
3 26 479 139 
3 149 86 48 
3 226 21 246 
3 61 128 264 
3 317 492 342 
3 318 176 447 
3 348 468 299 
3 236 178 322 
3 54 63 183 
3 261 88 360 
3 253 85 223 
3 36 114 286 
3 388 386 304 
3 198 374 44 
3 395 236 91 
3 239 59 262 
3 177 436 186 
3 364 46 338 
3 50 84 482 
3 257 483 326 
3 110 100 268 
3 119 148 497 
3 264 387 499 
3 260 347 103 
3 459 358 221 
3 498 106 34 
3 450 11 357 
3 184 129 311 
3 1 486 429 
3 444 417 114 
3 121 346 307 
3 419 204 243 
3 316 243 43 
3 329 303 254 
3 4 242 457 
3 282 289 68 
3 384 408 498 
3 322 293 2 
3 436 55 386 
3 256 149 333 
3 77 281 274 
3 1 429 464 
3 384 498 54 
3 28 2 292 
3 469 193 318 
3 326 118 257 
3 406 459 107 
3 183 114 417 
3 29 47 460 
3 134 463 284 
3 432 66 173 
3 421 449 287 
